<svg xmlns="http://www.w3.org/2000/svg" xmlns:xlink="http://www.w3.org/1999/xlink" width="128" height="128" viewBox="0 0 128 128">
  <defs>
    <clipPath id="clip-path">
      <rect id="Rectangle_1" data-name="Rectangle 1" width="108.063" height="108.063" fill="none"/>
    </clipPath>
    <clipPath id="clip-Custom_Size_1">
      <rect width="128" height="128"/>
    </clipPath>
  </defs>
  <g id="Custom_Size_1" data-name="Custom Size – 1" clip-path="url(#clip-Custom_Size_1)">
    <rect width="128" height="128" fill="#fff"/>
    <g id="Group_2" data-name="Group 2" transform="translate(9.968 9.968)">
      <g id="Group_1" data-name="Group 1" clip-path="url(#clip-path)">
        <path id="Path_1" data-name="Path 1" d="M61.844,32.517l0,0a6.9,6.9,0,0,0-1.283-.592h-.005a8.352,8.352,0,0,0-1.485-.357,11.679,11.679,0,0,0-1.735-.124H54.565v-3.89h2.768a15.717,15.717,0,0,1,2.385.184,12.842,12.842,0,0,1,2.2.546h0a10.861,10.861,0,0,1,1.96.922v0a9.648,9.648,0,0,1,3.043,2.926v.005a10.276,10.276,0,0,1,.985,1.922,11.617,11.617,0,0,1,.607,2.174,13.428,13.428,0,0,1,.2,2.324,13.023,13.023,0,0,1-.209,2.315,11.429,11.429,0,0,1-.607,2.167,10.1,10.1,0,0,1-1,1.929,9.488,9.488,0,0,1-1.374,1.645l-.442.422h-.029a9.378,9.378,0,0,1-1.2.864,10.313,10.313,0,0,1-1.953.932l-.25.087h-.014a12.644,12.644,0,0,1-1.888.456h0a15.665,15.665,0,0,1-2.414.194H54.565v-3.89h2.768a11.25,11.25,0,0,0,1.711-.119,8.552,8.552,0,0,0,1.48-.369l.01,0a6.546,6.546,0,0,0,1.262-.578,5.958,5.958,0,0,0,1.046-.8,5.822,5.822,0,0,0,.837-1.014h.005a6.531,6.531,0,0,0,.621-1.225l.06-.155a7.848,7.848,0,0,0,.33-1.274,9.092,9.092,0,0,0,.134-1.585,9.427,9.427,0,0,0-.131-1.606,7.371,7.371,0,0,0-.383-1.432A6.216,6.216,0,0,0,63.7,34.3a5.5,5.5,0,0,0-.825-1,5.948,5.948,0,0,0-1.029-.786m-7.279,75.541A53.86,53.86,0,0,0,92.231,92.233h0l0,0A54.184,54.184,0,0,0,103.968,74.7v-.005A53.986,53.986,0,0,0,92.237,15.828h0l0,0A53.916,53.916,0,0,0,54.565,0V3.908a49.93,49.93,0,0,1,34.9,14.674l.007,0a50.082,50.082,0,0,1,0,70.885l-.007,0a49.9,49.9,0,0,1-34.9,14.674Zm0-26.587V77.578h4.659a15.367,15.367,0,0,0,2.261-.16,11.56,11.56,0,0,0,1.99-.466v0a9.657,9.657,0,0,0,1.723-.762,8.04,8.04,0,0,0,1.422-1.029l.194-.18a7.407,7.407,0,0,0,.912-1.1,8.13,8.13,0,0,0,.83-1.551,9.47,9.47,0,0,0,.509-1.776,11.651,11.651,0,0,0,0-3.967,9.518,9.518,0,0,0-.509-1.776,8.23,8.23,0,0,0-.827-1.548l0,0a7.362,7.362,0,0,0-1.111-1.274h0l0,0A8.038,8.038,0,0,0,65.2,60.953a9.45,9.45,0,0,0-1.713-.757l-.01-.005a11.856,11.856,0,0,0-1.99-.466H61.48a15.016,15.016,0,0,0-2.256-.16H54.565V55.676h4.659a19.806,19.806,0,0,1,2.9.211,15.693,15.693,0,0,1,2.679.65,13.454,13.454,0,0,1,2.383,1.078,11.863,11.863,0,0,1,2.053,1.509h.007a11.611,11.611,0,0,1,1.672,1.912v.01a11.9,11.9,0,0,1,1.22,2.252l0,0a13.177,13.177,0,0,1,.738,2.533,15.247,15.247,0,0,1,0,5.474,12.936,12.936,0,0,1-.738,2.533h0A11.528,11.528,0,0,1,70.991,76a11.117,11.117,0,0,1-1.565,1.854l-.036.027-.155.143a12.171,12.171,0,0,1-2.048,1.5A13.673,13.673,0,0,1,64.8,80.606a15.781,15.781,0,0,1-2.679.651,19.17,19.17,0,0,1-2.9.214Zm0-50.021H44.3v14.24H54.565v3.89H40.415V27.559h14.15Zm0-31.45h-.534a53.859,53.859,0,0,0-20.662,4.1h0A54.129,54.129,0,0,0,15.827,15.828l0,0a54,54,0,0,0,0,76.409h0a53.9,53.9,0,0,0,38.2,15.83l.534-.005v-3.907l-.534,0A49.924,49.924,0,0,1,18.588,89.472h-.005a50.075,50.075,0,0,1,0-70.885h.005A49.933,49.933,0,0,1,54.032,3.905l.534,0Zm0,55.677v3.889H44.3V77.578H54.565V81.47H40.415V55.676h14.15Z" transform="translate(0 0.001)" fill-rule="evenodd"/>
      </g>
    </g>
  </g>
</svg>
